<svg width="29" height="22" viewBox="0 0 29 22" fill="none" xmlns="http://www.w3.org/2000/svg">
<path id="car" fill-rule="evenodd" clip-rule="evenodd" d="M6.02327 9.83333V11H15.3566V2.83333H3.68994V1.66667C3.68994 1.02267 4.21261 0.5 4.85661 0.5H16.5233C17.1673 0.5 17.6899 1.02267 17.6899 1.66667V4H23.1348C24.4379 4 25.0014 4.672 25.3934 5.2915C26.0864 6.38817 27.1854 8.12883 27.8539 9.2325C28.0733 9.5965 28.1899 10.0142 28.1899 10.44V15.6667C28.1899 16.9372 27.3231 18 25.8566 18H24.6899C24.6899 19.932 23.1219 21.5 21.1899 21.5C19.2579 21.5 17.6899 19.932 17.6899 18H13.0233C13.0233 19.932 11.4553 21.5 9.52327 21.5C7.59127 21.5 6.02327 19.932 6.02327 18H4.85661C4.21261 18 3.68994 17.4773 3.68994 16.8333V9.83333H1.35661V7.5H9.52327V9.83333H6.02327ZM9.52327 16.6C10.2956 16.6 10.9233 17.2277 10.9233 18C10.9233 18.7723 10.2956 19.4 9.52327 19.4C8.75094 19.4 8.12327 18.7723 8.12327 18C8.12327 17.2277 8.75094 16.6 9.52327 16.6ZM21.1899 16.6C21.9623 16.6 22.5899 17.2277 22.5899 18C22.5899 18.7723 21.9623 19.4 21.1899 19.4C20.4176 19.4 19.7899 18.7723 19.7899 18C19.7899 17.2277 20.4176 16.6 21.1899 16.6ZM17.6899 13.3333H6.02327V15.6667H6.91577C7.55627 14.9503 8.48727 14.5 9.52327 14.5C10.5593 14.5 11.4903 14.9503 12.1308 15.6667H18.5824C19.2229 14.9503 20.1539 14.5 21.1899 14.5C22.2259 14.5 23.1569 14.9503 23.7974 15.6667H25.8566V10.3292L23.8604 6.912C23.6516 6.55383 23.2678 6.33333 22.8536 6.33333H17.6899V13.3333ZM18.8566 7.5V11H24.6899L23.0251 8.088C22.8174 7.724 22.4313 7.5 22.0124 7.5H18.8566ZM0.189941 4H9.52327V6.33333H0.189941V4Z" fill="black"/>
</svg>
